<?xml version="1.0"?>
<svg xmlns="http://www.w3.org/2000/svg" viewBox="0 0 64 64" width="512px" height="512px"><g><g id="mobile-screen-shop-store-package"><rect x="23" y="56" width="4" height="2" rx="1" data-original="#000000" class="active-path" data-old_color="#000000" fill="#E5E5E5"/><path d="M30,35H20a3,3,0,1,0,3,3,2.966,2.966,0,0,0-.184-1h4.368A2.966,2.966,0,0,0,27,38a3,3,0,1,0,3-3Zm-9,3a1,1,0,1,1-1-1A1,1,0,0,1,21,38Zm9,1a1,1,0,1,1,1-1A1,1,0,0,1,30,39Z" data-original="#000000" class="active-path" data-old_color="#000000" fill="#E5E5E5"/><path d="M58.99,41.9A1,1,0,0,0,58,41H55V39a5,5,0,0,0-10,0v2H44V16.86A4,4,0,0,0,47,13a1,1,0,0,0-.11-.45L44,6.76V5a3.009,3.009,0,0,0-3-3H9A3.009,3.009,0,0,0,6,5V6.76L3.11,12.55A1,1,0,0,0,3,13a4,4,0,0,0,3,3.86V59a3.009,3.009,0,0,0,3,3H60a1,1,0,0,0,.74-.33.99.99,0,0,0,.25-.77ZM47,39a3,3,0,0,1,6,0v2H47ZM44.99,13.21A2,2,0,0,1,41,13V8h1.38ZM8,5A1,1,0,0,1,9,4H41a1,1,0,0,1,1,1V6H8ZM39,8v5a2,2,0,0,1-4,0V8ZM33,8v5a2,2,0,0,1-4,0V8ZM27,8v5a2,2,0,0,1-4,0V8ZM21,8v5a2,2,0,0,1-4,0V8ZM15,8v5a2,2,0,0,1-4,0V8ZM5.01,13.21,7.62,8H9v5a2,2,0,0,1-3.99.21ZM31,60H9a1,1,0,0,1-1-1V54H31Zm8.1,0H33V51h7.05Zm1.16-11H33V48h7.36Zm.31-3H32a1,1,0,0,0-1,1v5H8V16.86a4.054,4.054,0,0,0,2-1.24,3.951,3.951,0,0,0,6,0,3.951,3.951,0,0,0,6,0,3.951,3.951,0,0,0,6,0,3.951,3.951,0,0,0,6,0,3.951,3.951,0,0,0,6,0,4.054,4.054,0,0,0,2,1.24V41a1,1,0,0,0-.99.9Zm.54,14L42.9,43H45v3h2V43h6v3h2V43h2.1l1.79,17Z" data-original="#000000" class="active-path" data-old_color="#000000" fill="#E5E5E5"/><path d="M33.75,24.34A.981.981,0,0,0,33,24H20V21a1,1,0,0,0-1-1H15v2h3V33a1,1,0,0,0,1,1H32a1,1,0,0,0,.99-.88l1-8A.968.968,0,0,0,33.75,24.34ZM31.12,32H20V26H31.87Z" data-original="#000000" class="active-path" data-old_color="#000000" fill="#E5E5E5"/></g></g> </svg>
